<svg id="Capa_1" enable-background="new 0 0 512 512" height="512" viewBox="0 0 512 512" width="512"
    xmlns="http://www.w3.org/2000/svg">
    <g>
        <g>
            <g>
                <path d="m287.873 148.615c-14.671-2.112-30.447-1.615-45.599-.971-9.485.4-15.279 3.594-24.111 5.883 3.068 10.448-24.2 65.991 25.489 78.869 11.307 2.927 19.613-13.115 35.144-10.789 13.034 1.956 17.028 12.774 27.32 23.607 16.835 17.694 49.556 8.662 61.693 4.453l-13.169-39.53c-6.799-20.409-21.204-37.413-40.218-47.475z" fill="#a4fcc4"/>
            </g>
            <g>
                <path d="m160.528 199.873c-.121-.058-.242-.117-.362-.176-11.742 19.198-17.721 42.156-15.704 66.3 2.431 29.098 16.027 54.567 36.198 72.608 12.954-10.262 34.134-16.054 33.966-29.294-.112-8.805-16.587-19.025-21.378-36.163-2.651-9.482-3.575-19.437-3.685-28.22-.243-19.324-11.628-36.662-29.035-45.055z" fill="#a4fcc4"/>
            </g>
            <g>
                <path d="m223.492 359.668c11.621 4.19 24.27 8.25 37.216 6.486 71.823-9.788 91.474-52.282 91.474-52.282s-20.603-16.014-27.816-20.448c-36.528-22.455-53.872 9.009-62.549 28.772-9.029 20.565-26.035 30.783-38.325 37.472z" fill="#a4fcc4"/>
            </g>
        </g>
        <g fill="#15b975ec">
            <path d="m256 134.013c-67.264 0-121.987 54.724-121.987 121.987s54.723 121.987 121.987 121.987 121.987-54.723 121.987-121.987-54.723-121.987-121.987-121.987zm0 223.974c-56.236 0-101.987-45.751-101.987-101.987s45.751-101.987 101.987-101.987 101.987 45.751 101.987 101.987-45.751 101.987-101.987 101.987z"/>
            <path d="m510.159 250.218c-1.152-1.626-28.738-40.273-73.635-79.455-26.495-23.123-53.523-41.576-80.333-54.848-33.939-16.802-67.648-25.32-100.19-25.32s-66.251 8.519-100.19 25.32c-26.81 13.272-53.838 31.725-80.333 54.848-44.898 39.182-72.484 77.829-73.637 79.455-2.455 3.464-2.455 8.101 0 11.564 1.152 1.626 28.738 40.272 73.635 79.455 26.495 23.123 53.523 41.576 80.333 54.848 33.939 16.802 67.648 25.32 100.19 25.32s66.251-8.519 100.19-25.32c26.81-13.272 53.838-31.725 80.333-54.848 44.897-39.183 72.483-77.829 73.635-79.455 2.457-3.464 2.457-8.1.002-11.564zm-86.786 75.95c-39.329 34.323-100.29 75.237-167.373 75.237-66.943 0-127.786-40.755-167.038-74.944-33.289-28.995-57.152-58.345-66.476-70.464 9.277-12.068 32.959-41.207 66.141-70.165 39.329-34.323 100.29-75.237 167.373-75.237 66.943 0 127.786 40.755 167.038 74.944 33.289 28.995 57.151 58.343 66.476 70.464-9.278 12.068-32.96 41.207-66.141 70.165z"/>
            <path d="m256 69.206c5.523 0 10-4.478 10-10v-15.315c0-5.522-4.477-10-10-10s-10 4.478-10 10v15.316c0 5.522 4.477 9.999 10 9.999z"/>
            <path d="m108.036 110.354c1.953 1.952 4.512 2.929 7.071 2.929s5.119-.977 7.071-2.929c3.905-3.905 3.905-10.237 0-14.143l-10.83-10.83c-3.905-3.904-10.237-3.904-14.143 0-3.905 3.905-3.905 10.237 0 14.143z"/>
            <path d="m396.893 113.282c2.559 0 5.119-.977 7.071-2.929l10.83-10.83c3.905-3.905 3.905-10.237 0-14.143-3.905-3.904-10.237-3.904-14.142 0l-10.83 10.83c-3.905 3.905-3.905 10.237 0 14.143 1.952 1.953 4.512 2.929 7.071 2.929z"/>
            <path d="m256 442.794c-5.523 0-10 4.478-10 10v15.315c0 5.522 4.477 10 10 10s10-4.478 10-10v-15.315c0-5.522-4.477-10-10-10z"/>
            <path d="m403.964 401.647c-3.905-3.904-10.237-3.904-14.143 0-3.905 3.905-3.905 10.237 0 14.143l10.83 10.83c1.953 1.952 4.512 2.929 7.071 2.929s5.119-.977 7.071-2.929c3.905-3.905 3.905-10.237 0-14.142z"/>
            <path d="m108.036 401.647-10.83 10.83c-3.905 3.905-3.905 10.237 0 14.142 1.953 1.952 4.512 2.929 7.071 2.929s5.119-.977 7.071-2.929l10.83-10.83c3.905-3.905 3.905-10.237 0-14.143-3.905-3.904-10.237-3.904-14.142.001z"/>
        </g>
    </g>
</svg>