<svg id="Capa_1" enable-background="new 0 0 512 512" height="512" viewBox="0 0 512 512" width="512"
    xmlns="http://www.w3.org/2000/svg">
    <g>
        <g>
            <ellipse cx="256" cy="310.566" fill="#b2f0fb" rx="114.277" ry="114.277" transform="matrix(.707 -.707 .707 .707 -144.622 271.982)"/>
        </g>
        <g fill="#15b975ec">
            <path d="m307.633 294.775c3.62-.338 6.926-2.645 8.366-6.254 2.047-5.129-.452-10.947-5.582-12.994l-22.929-9.149c-3.121-1.246-6.662-.84-9.421 1.082s-4.368 5.101-4.282 8.462l.631 24.679c.14 5.434 4.588 9.744 9.992 9.744.087 0 .174-.001.261-.003 2.829-.073 5.353-1.313 7.123-3.249l27.088 41.395c.758 1.157.483 2.2.121 2.872-.363.671-1.086 1.471-2.468 1.471h-8.636c-5.523 0-10 4.477-10 10 0 5.522 4.477 10 10 10h8.636c8.385 0 16.071-4.582 20.061-11.958 3.988-7.377 3.613-16.318-.979-23.336z"/>
            <path d="m282.115 354.48-20.611-13.586c-4.611-3.038-10.813-1.765-13.853 2.846-1.844 2.798-2.1 6.182-.986 9.09h-51.198c-1.383 0-2.105-.8-2.468-1.472-.363-.671-.637-1.714.12-2.87l3.748-5.727c3.024-4.621 1.73-10.819-2.891-13.844-4.623-3.024-10.819-1.73-13.844 2.891l-3.749 5.728c-4.592 7.018-4.966 15.959-.977 23.336 3.988 7.376 11.675 11.958 20.061 11.958h51.198c-1.114 2.908-.859 6.292.986 9.091 1.922 2.916 5.109 4.497 8.358 4.497 1.889 0 3.799-.534 5.495-1.651l20.611-13.587c2.807-1.851 4.496-4.988 4.496-8.35.001-3.362-1.689-6.499-4.496-8.35z"/>
            <path d="m198.782 321.927c1.702 1.186 3.701 1.794 5.716 1.794 1.251 0 2.509-.234 3.705-.712l22.928-9.149c5.13-2.047 7.629-7.865 5.581-12.994-1.436-3.6-4.73-5.903-8.34-6.25l25.28-38.631c.723-1.105 1.781-1.27 2.348-1.27.566 0 1.625.165 2.349 1.27l.592.904c3.023 4.621 9.223 5.917 13.843 2.892 4.621-3.024 5.916-9.222 2.892-13.843l-.592-.904c-4.228-6.461-11.362-10.318-19.084-10.318s-14.855 3.857-19.082 10.318l-24.395 37.278c-1.771-1.945-4.302-3.194-7.14-3.266-5.508-.149-10.111 4.221-10.252 9.742l-.63 24.679c-.087 3.359 1.522 6.539 4.281 8.46z"/>
            <path d="m447.384 379.768c-6.789 0-13.175 1.756-18.729 4.838v-240.47h14.574c5.522 0 10-4.477 10-10v-56.813c0-5.522-4.478-10-10-10h-21.585l-31.59-61.87c-1.708-3.347-5.147-5.453-8.905-5.453h-250.298c-3.757 0-7.198 2.106-8.906 5.453l-31.59 61.87h-21.584c-5.523 0-10 4.478-10 10v56.813c0 5.523 4.477 10 10 10h14.574v240.469c-5.554-3.081-11.939-4.838-18.728-4.838-21.354 0-38.728 17.374-38.728 38.728v54.775c0 21.354 17.373 38.728 38.728 38.728 7.235 0 14.014-1.995 19.814-5.463 1.654 3.243 5.024 5.463 8.914 5.463h325.311c3.889 0 7.26-2.221 8.914-5.464 5.801 3.468 12.579 5.464 19.815 5.464 21.354 0 38.728-17.374 38.728-38.728v-54.775c-.001-21.353-17.374-38.727-38.729-38.727zm-310.411-359.768h238.053l24.162 47.323h-286.377zm-58.202 67.323h354.459v36.813h-354.459zm-14.155 404.677c-10.327 0-18.728-8.401-18.728-18.728v-54.775c0-10.327 8.401-18.728 18.728-18.728s18.728 8.401 18.728 18.728v54.775c0 10.327-8.401 18.728-18.728 18.728zm344.04 0h-305.312v-347.864h305.311v347.864zm57.456-18.728c0 10.327-8.401 18.728-18.728 18.728s-18.729-8.401-18.729-18.728v-54.775c0-10.327 8.401-18.728 18.729-18.728 10.326 0 18.728 8.401 18.728 18.728z"/>
        </g>
    </g>
</svg>